<?xml version="1.0" encoding="UTF-8"?>
<svg width="168px" height="168px" viewBox="0 0 168 168" version="1.1" xmlns="http://www.w3.org/2000/svg" xmlns:xlink="http://www.w3.org/1999/xlink">
    <!-- Generator: Sketch 63.1 (92452) - https://sketch.com -->
    <title>已验证</title>
    <desc>Created with Sketch.</desc>
    <defs>
        <polygon id="path-1" points="0.416559996 0.756285939 140.078211 0.756285939 140.078211 140.417679 0.416559996 140.417679"></polygon>
    </defs>
    <g id="已验证" stroke="none" stroke-width="1" fill="none" fill-rule="evenodd" opacity="0.6">
        <g id="已过期-copy">
            <g id="已过期">
                <g id="Page-1" transform="translate(0.000000, 15.120000)">
                    <path d="M54.4525093,113.121832 C54.7060178,113.290697 54.9610748,113.45745 55.2176549,113.622067 C54.3948028,113.835766 53.5591589,114.071971 52.708666,114.33274 C46.1627401,116.347585 41.0475438,119.243771 35.6358678,122.305209 C29.9350935,125.580862 24.0350257,128.920167 16.1014276,131.343856 L15.9451914,130.651024 C23.8234303,128.227335 29.6927429,124.902718 35.3762944,121.68827 C40.8051932,118.613367 45.9339218,115.71106 52.5155237,113.681526 C53.0655282,113.512398 53.6092024,113.353471 54.1472658,113.203874 Z M49.2293295,109.157354 C49.4281227,109.328518 49.6282115,109.49824 49.8295793,109.666503 C44.0606782,111.63832 39.3614004,114.291298 34.4114438,117.082281 C28.7094393,120.331004 22.8106017,123.662964 14.8708525,126.107463 L14.7146164,125.414631 C22.5928553,122.990941 28.4683189,119.672446 34.1518704,116.466566 C38.9021569,113.781381 43.426393,111.229278 48.893212,109.273579 Z M44.9992862,105.088182 C45.170118,105.271712 45.3422494,105.454035 45.5156658,105.635134 C41.0980307,107.428315 37.2273817,109.602984 33.1866508,111.874164 C27.4858764,115.087389 21.5858087,118.405884 13.6460595,120.850383 L13.4898233,120.157551 C21.3680622,117.733861 27.2435259,114.430055 32.9270773,111.229071 C36.7725474,109.065755 40.4729663,106.985351 44.6417408,105.234961 Z M41.4647006,100.872277 C41.6091288,101.063939 41.7548422,101.254592 41.9018281,101.444223 C38.4478137,103.009893 35.2681973,104.792092 31.9793267,106.637893 C26.2600992,109.871927 20.3551107,113.154925 12.4215125,115.593303 L12.2652763,114.900471 C20.1435152,112.476781 26.0251299,109.179095 31.7086814,105.9928 C34.875539,104.21553 37.9440229,102.494491 41.2577087,100.965993 Z M38.4892366,96.4808222 C38.6085768,96.6776154 38.7291772,96.8735712 38.8510265,97.0686784 C36.0846111,98.4072498 33.4571996,99.876113 30.7546567,101.4015 C25.0354292,104.593915 19.1304406,107.897722 11.1968425,110.336101 L11.0406063,109.643268 C18.9188452,107.219579 24.8004599,103.929237 30.4901624,100.756407 C32.9784077,99.3627859 35.4072144,98.0056788 37.94146,96.7489647 Z M36.0048643,91.8816937 C36.1024399,92.0861311 36.2013035,92.2898454 36.3014447,92.4928262 C34.0087641,93.6473882 31.7897866,94.8841474 29.5190378,96.1573955 C23.8108822,99.3510347 17.9058936,102.641377 9.96614444,105.085875 L9.80990828,104.393043 C17.6881472,101.969354 23.5697618,98.6924767 29.2656154,95.5208711 C31.3014524,94.3856848 33.2975,93.2728763 35.3443873,92.2182716 Z M33.9932501,87.0590979 C34.0726097,87.2799493 34.1534135,87.5001206 34.2356502,87.7196006 C32.245251,88.7443206 30.2983093,89.8270111 28.3115907,90.9358139 C22.5862122,94.100075 16.6750726,97.4051059 8.74147442,99.8287952 L8.58523826,99.1359628 C16.4634772,96.7122735 22.3512428,93.4427411 28.0409454,90.2846004 C29.929258,89.2342286 31.784083,88.2038494 33.677223,87.2212272 Z M32.4577103,81.9862843 C32.5152165,82.2183754 32.5742738,82.4498614 32.6348706,82.6807309 C30.7753873,83.6434971 28.9489463,84.6539564 27.0869206,85.6848543 C21.3615422,88.8576839 15.4504026,92.1333368 7.51680439,94.5717152 L7.36056824,93.8788827 C15.2388071,91.4551934 21.1265728,88.1917814 26.8211962,85.0409853 C28.4738441,84.1241452 30.1013089,83.222612 31.7512072,82.3547785 Z M167.228538,83.9950042 L167.386004,84.6878366 C159.452406,87.126215 152.90648,87.6452272 146.548776,88.1507745 C141.961073,88.509151 137.596749,88.8554939 132.898596,89.8809619 C133.007975,89.6252887 133.115745,89.3669492 133.221492,89.1075833 C137.791683,88.1458287 142.057601,87.8098253 146.505719,87.4579421 C152.822826,86.9597393 159.350299,86.4468475 167.228538,83.9950042 Z M31.4292355,76.6584858 C31.4634538,76.9037839 31.4993753,77.1485422 31.5369877,77.3927485 C29.6312282,78.374852 27.7620449,79.4054538 25.8563456,80.4558057 C20.1137443,83.6139464 14.2198276,86.8761343 6.28622938,89.3145127 L6.12876302,88.6216802 C14.0082321,86.1979909 19.9021488,82.9492679 25.5967722,79.8045922 C27.4855127,78.7589039 29.3413609,77.7342448 31.2356536,76.7570915 Z M30.9517231,71.0483669 C30.9596867,71.3011759 30.9694465,71.5535357 30.9809902,71.8054342 C28.8322205,72.8912391 26.7402389,74.0407134 24.6014125,75.212925 C18.9067892,78.3637212 12.9944194,81.6197887 5.03129629,84.0642874 L4.87506014,83.371455 C12.753299,80.9477657 18.6472157,77.7063872 24.3479901,74.5751765 C26.4728232,73.4045249 28.5567805,72.258052 30.7005487,71.1744825 Z M165.991812,78.7512666 L166.149278,79.444099 C158.21568,81.8824774 151.669754,82.4222991 145.323122,82.907037 C141.843832,83.1922831 138.475739,83.468069 134.98761,84.0395828 C135.059574,83.7965747 135.129208,83.5511984 135.197088,83.305103 C138.596796,82.7605225 141.886677,82.4910634 145.281295,82.2154287 C151.592251,81.6951923 158.113573,81.1627151 165.991812,78.7512666 Z M31.0931684,65.1551967 C31.0717599,65.4231862 31.0523737,65.6917406 31.0350249,65.9608448 C28.4405544,67.221719 25.9568726,68.5819097 23.4071286,69.9693099 C17.7002032,73.120106 11.7693803,76.3627086 3.8247103,78.8072073 L3.66847414,78.1143749 C11.546713,75.6906856 17.4406297,72.4554276 23.1475551,69.3315613 C25.7445734,67.9036922 28.2819371,66.5125016 30.9421334,65.2274879 Z M164.754717,73.4525676 L164.912183,74.1454 C156.978585,76.5837784 150.433889,77.1444096 144.093408,77.6781109 C141.460853,77.9000259 138.891352,78.1179313 136.285118,78.4618668 C136.329682,78.218266 136.370852,77.9732579 136.410311,77.7276836 C138.958885,77.3965918 141.474108,77.183088 144.050351,76.964469 C150.355156,76.4319918 156.876478,75.8774811 164.754717,73.4525676 Z M31.9604787,58.9725217 C31.9037521,59.2534461 31.8492786,59.5351782 31.7970778,59.8176986 C28.4693376,61.3247506 25.3828593,63.0132168 22.1943916,64.7391597 C16.4936172,67.8777149 10.5394204,71.084819 2.6181243,73.5501273 L2.46188815,72.8572949 C10.340127,70.4336055 16.2401948,67.2130365 21.9409692,64.0952907 C25.2462651,62.2824732 28.4549306,60.5313368 31.9442921,58.9807422 Z M163.53017,68.1612132 L163.687636,68.8540456 C155.754038,71.2924239 149.209342,71.86652 142.879933,72.4210308 C140.876769,72.5958014 138.91565,72.767468 136.949876,72.9926259 C136.967695,72.7516579 136.982543,72.510349 136.995748,72.2686064 C138.93274,72.048211 140.864317,71.8792352 142.831955,71.7073889 C149.130609,71.1528782 155.651931,70.5861266 163.53017,68.1612132 Z M33.6920705,52.5490408 C33.5936589,52.838809 33.4977194,53.1297053 33.4042769,53.4217049 C28.9709204,55.1926632 25.0787058,57.3107606 21.0186838,59.5174557 C15.2391762,62.6266329 9.31450435,65.8545464 1.41166133,68.3137342 L1.25419497,67.6209018 C9.13366407,65.1972125 15.0337318,61.9827639 20.7406572,58.8797071 C24.7533216,56.6838573 28.6282099,54.5782868 33.0319655,52.8096422 Z M162.294428,62.8697363 L162.450664,63.5625687 C154.517066,66.000947 147.97237,66.5958526 141.649112,67.1711728 C140.099154,67.3127592 138.571355,67.4519686 137.044932,67.6152487 C137.037697,67.3758625 137.028143,67.1361739 137.016978,66.8969023 C138.535698,66.7354721 140.057158,66.5974216 141.601134,66.4575309 C147.899788,65.8822107 154.408808,65.2934256 162.294428,62.8697363 Z M36.4769189,45.9011145 C36.3309293,46.1914971 36.187564,46.4834058 36.0468539,46.77681 C29.9013486,48.7692077 24.9732442,51.444894 19.7638737,54.2672304 C14.0138911,57.3837522 8.09044943,60.5982008 0.156851259,63.0426995 L0.000615102975,62.3498671 C7.878854,59.9261778 13.7850728,56.7264183 19.4919982,53.6233615 C24.6848579,50.7933822 29.6469785,48.1101173 35.8285668,46.1059847 Z M161.051428,57.5778921 L161.207664,58.2707245 C153.275296,60.7078788 146.72937,61.3248179 140.418414,61.9136031 C139.133578,62.0339828 137.863716,62.1527823 136.597014,62.2849556 C136.565905,62.0491261 136.532342,61.8137434 136.497216,61.5788665 C137.780168,61.4439343 139.06754,61.3227487 140.370436,61.1999612 C146.662939,60.6111761 153.171959,60.0015815 161.051428,57.5778921 Z M159.820607,52.2926581 L159.976843,52.9854905 C152.044475,55.4238688 145.498549,56.0542729 139.199895,56.6699879 C137.991799,56.7861433 136.797193,56.9011512 135.606205,57.0272109 C135.551006,56.7928953 135.492845,56.5598239 135.433125,56.3273707 C136.661984,56.1971256 137.896608,56.0780841 139.145765,55.9575701 C145.438269,55.3479755 151.941138,54.7175715 159.820607,52.2926581 Z M158.589786,46.9939591 L158.746022,47.6867915 C150.813654,50.1251698 144.267728,50.7763833 137.975225,51.4067874 C136.655302,51.5378802 135.351149,51.6676654 134.049867,51.8118474 C133.968853,51.5803512 133.884651,51.3493319 133.798872,51.1190705 C135.164945,50.9663852 136.534038,50.830483 137.921095,50.6931455 C144.207448,50.070086 150.705396,49.4188725 158.589786,46.9939591 Z M157.346909,41.7098267 L157.504375,42.401435 C149.570777,44.8398134 143.024851,45.5118363 136.74465,46.1557053 C135.115468,46.3219867 133.510543,46.4862643 131.905381,46.6778787 C131.796089,46.4508086 131.684864,46.2243384 131.572057,45.9987848 C133.270235,45.7934073 134.966736,45.6197551 136.69052,45.4432875 C142.970722,44.7981945 149.46867,44.133516 157.346909,41.7098267 Z M156.079673,36.4179826 L156.23714,37.110815 C148.303542,39.5479693 141.788371,40.2346812 135.483565,40.8993597 C133.339027,41.1257591 131.237011,41.34758 129.121276,41.6316714 C128.982782,41.412036 128.84365,41.193376 128.702949,40.9758105 C130.942187,40.667702 133.162163,40.4332582 135.429436,40.1930623 C141.703487,39.5002299 148.195283,38.8416719 156.079673,36.4179826 Z M154.873087,31.1192836 L155.030554,31.812116 C147.096956,34.2492703 140.587936,34.9555676 134.289281,35.6422796 C131.377905,35.9564579 128.544151,36.2642243 125.647092,36.7295535 C125.476709,36.5146266 125.304094,36.3015678 125.129852,36.0898792 C128.186886,35.583783 131.164088,35.260829 134.229001,34.9286377 C140.503052,34.2358053 146.988697,33.5429729 154.873087,31.1192836 Z M153.649279,25.826705 L153.805515,26.5195374 C145.873147,28.9579158 139.369048,29.6850226 133.070393,30.3851995 C129.164777,30.8378814 125.400433,31.2518933 121.434222,32.046516 C121.229852,31.8431954 121.0231,31.6423847 120.814711,31.4432484 C124.99229,30.5696998 128.927166,30.1303267 133.016264,29.6715576 C139.284164,28.9787252 145.769809,28.2516184 153.649279,25.826705 Z M152.436665,20.5560376 L152.592901,21.24887 C144.660533,23.6872483 138.156434,24.4351646 131.870081,25.1549269 C126.748947,25.7502089 121.873018,26.3048266 116.47292,27.7186482 C116.23326,27.5350582 115.991963,27.3528719 115.749059,27.1727016 C121.427685,25.6316781 126.490965,25.0505784 131.809801,24.4425091 C138.077701,23.7496767 144.551044,22.980951 152.436665,20.5560376 Z M151.181854,15.2507285 L151.338091,15.9435609 C143.405723,18.3807152 136.907775,19.1433205 130.621422,19.8838922 C124.667226,20.5767246 119.039033,21.269557 112.523863,23.2501274 C111.898567,23.4427113 111.286045,23.6421198 110.684816,23.8478452 C110.414269,23.6894442 110.140014,23.5340951 109.864242,23.3811166 C110.656924,23.1000563 111.470065,22.830034 112.306116,22.571984 C118.90002,20.5424502 124.565119,19.8777718 130.561142,19.1714744 C136.822891,18.4370231 143.296234,17.6744178 151.181854,15.2507285 Z" id="合并形状" fill="#26CE77" opacity="0.5"></path>
                    <path d="M83.4004033,7.76662745 C49.1133035,7.77276308 21.3226034,35.5745073 21.328738,69.8616072 C21.3361018,104.149934 49.1366188,131.939407 83.4237187,131.933273 C117.712046,131.925909 145.502746,104.125392 145.495384,69.8382918 C145.495384,64.4193078 144.78365,59.0236391 143.382274,53.7887238 C136.159416,26.6079049 111.524881,7.7101797 83.4004033,7.77521733 L83.4004033,7.76662745 Z M83.3157317,132.895522 C48.4641543,132.978782 20.1433363,104.794175 20.0597015,69.9438246 C19.9752201,35.0922472 48.1598273,6.77142907 83.0114047,6.68656716 C117.862982,6.60208582 146.1838,34.786693 146.268657,69.6382704 C146.337191,98.1689269 127.25417,123.197369 99.722393,130.684058 C94.3745823,132.13452 88.8586553,132.878158 83.3157317,132.895522 L83.3157317,132.895522 Z" id="Fill-31" fill="#26CE77"></path>
                    <g id="Group-35" transform="translate(13.373134, 0.000000)">
                        <mask id="mask-2" fill="white">
                            <use xlink:href="#path-1"></use>
                        </mask>
                        <g id="Clip-34"></g>
                        <path d="M70.5195991,3.00149442 C64.56046,3.00642137 58.6284192,3.79226897 52.8737483,5.33932946 C16.7149046,15.0133844 -4.75425483,52.1662391 4.91856842,88.3250828 C14.5926234,124.482695 51.7467098,145.951854 87.9043218,136.279031 C124.061934,126.604976 145.532325,89.4521213 135.85827,53.2932776 C135.853343,53.2748016 135.848416,53.2563255 135.843489,53.2378495 C127.90495,23.6811111 101.157802,3.10003331 70.5528559,3.00149442 L70.5195991,3.00149442 Z M70.2904962,140.417679 C31.7248402,140.442299 0.441207855,109.19685 0.416559996,70.6299626 C0.393170149,32.0643067 31.6386187,0.780674313 70.2042746,0.756026453 C108.771162,0.732636606 140.054795,31.9780852 140.078211,70.5437411 C140.097905,102.127917 118.91574,129.792709 88.4204192,138.012084 C82.5080861,139.603487 76.4134561,140.412737 70.2904962,140.417679 L70.2904962,140.417679 Z" id="Fill-33" fill="#26CE77" mask="url(#mask-2)"></path>
                    </g>
                    <path d="M43.0960975,62.6865672 L43.0021184,62.6865672 C42.748622,62.6366456 42.5853951,62.3932717 42.6360944,62.1438135 L42.6373309,62.1425967 C45.9451492,46.4924419 57.944801,33.7871106 73.1681845,29.7702254 C88.3928046,25.7533402 105.248457,30.8581065 116.058531,42.7846415 C116.231651,42.9744731 116.216812,43.2665217 116.023907,43.4368834 C115.832239,43.6084619 115.534227,43.5938595 115.361107,43.4040279 C104.781035,31.7366861 88.3161374,26.7402211 73.4154981,30.6658412 C58.5148587,34.5914612 46.7959077,47.0278644 43.5548641,62.334862 C43.5041648,62.5429466 43.3137334,62.6889709 43.0960975,62.6865672" id="Fill-44" fill="#26CE77"></path>
                    <path d="M84.9993713,107.820896 C74.5898148,107.758197 64.6155312,103.659941 57.1998628,96.3963553 C57.0149026,96.2149189 57.0124365,95.9182458 57.1949305,95.7343576 C57.3774245,95.5504693 57.6758269,95.5480175 57.860787,95.7294539 C67.385001,105.113884 81.564045,109.034382 93.9798025,105.729297 C106.39556,102.424212 116.700306,91.9781336 120.270036,79.1194411 C120.337855,78.870579 120.596799,78.7234684 120.847112,78.7908941 C121.097425,78.8583198 121.245393,79.1157634 121.177574,79.3646255 C117.564686,92.534702 106.99853,103.241902 94.2683403,106.631575 C91.2448586,107.430876 88.1276637,107.830527 84.9993713,107.820896 M48.117087,61.6243129 L47.990081,61.6243129 C47.7410014,61.5593391 47.5918002,61.3055733 47.6571528,61.0579371 C47.6571528,61.0554853 47.6583859,61.0530335 47.6583859,61.0505816 C51.2712739,47.8805051 61.838663,37.1733052 74.5676196,33.7836318 C87.2978093,30.3939583 101.83321,34.4076259 111.586774,44.0188518 C111.771735,44.2015141 111.772968,44.4969613 111.590474,44.6808495 C111.40798,44.8647378 111.109577,44.8671896 110.924617,44.6857532 C101.400403,35.3013228 87.2213591,31.3722438 74.8056016,34.6859101 C62.3898442,37.9995764 52.0850985,48.4370735 48.5153678,61.2957659 C48.4611128,61.4747505 48.3045133,61.6046982 48.117087,61.6243129" id="Fill-46" fill="#26CE77"></path>
                    <path d="M84.3110985,112 C71.9404764,111.935546 60.1782455,106.717187 51.9414688,97.6388735 C51.7683494,97.4491592 51.7831882,97.1572911 51.9760927,96.9870347 C52.1689973,96.8155622 52.4657735,96.8301556 52.638893,97.0198699 C63.2189652,108.68 79.6838626,113.673377 94.5845019,109.750183 C109.485141,105.82699 121.204092,93.3982732 124.445136,78.1007366 C124.495835,77.8514326 124.743149,77.689689 124.996645,77.7407659 L124.997882,77.7407659 C125.251378,77.7906267 125.414605,78.0338501 125.363906,78.2831541 C125.363906,78.2831541 125.363906,78.2831541 125.363906,78.2831541 C122.054851,93.9248519 110.055199,106.62233 94.8318155,110.636733 C91.4003404,111.541524 87.8637571,112 84.3110985,112" id="Fill-48" fill="#26CE77"></path>
                    <polygon id="Fill-50" fill="#26CE77" points="40.7487318 37.6119403 41.2869249 37.9594727 38.5553177 41.9560954 41.1957892 43.6661946 43.7894613 39.8732977 44.3276545 40.2220285 41.7339823 44.0149254 45.1343284 46.2139667 44.7303756 46.8059701 37.6119403 42.2005665"></polygon>
                    <polygon id="Fill-52" fill="#26CE77" points="45.9655423 30.9253731 46.461232 31.3532326 42.7951669 35.1906353 45.2086279 37.2766019 48.6759074 33.6476746 49.1779685 34.0828065 45.7119632 37.7129458 48.3522437 39.9940551 52.1610267 36.0075682 52.6567164 36.4354277 48.3407753 40.9552239 41.7910448 35.2960851"></polygon>
                    <polygon id="Fill-54" fill="#26CE77" points="48.3097678 28.7259737 57.1614074 31.3647621 57.1917126 31.3451246 52.5120869 25.5299713 53.1093516 25.0746269 58.5074627 31.7796042 57.8508503 32.279133 48.9398631 29.6084336 48.9120834 29.6317531 53.6283279 35.4910908 53.0399022 35.9402985 47.641791 29.2340938"></polygon>
                    <path d="M59.5834379,30.8292198 L62.2387383,29.3918971 C62.8079987,29.0858946 63.2074797,28.7164062 63.4296911,28.3012078 C63.6793667,27.8034777 63.6706281,27.290511 63.3859978,26.7458012 C63.1076095,26.2125189 62.7043833,25.9141348 62.2037837,25.8493791 C61.7106743,25.7770051 61.1776168,25.9141348 60.5796437,26.2379133 L57.9293368,27.6676177 L59.5834379,30.8292198 Z M57.6334712,27.1013227 L60.2051302,25.7109797 C60.7544166,25.415135 61.1127012,25.0532648 61.2874741,24.6520334 C61.4684889,24.2330259 61.4410246,23.7860846 61.1901006,23.3061305 C60.940425,22.8249068 60.5846372,22.5404896 60.1589402,22.4643064 C59.7220079,22.3932021 59.2363887,22.5163649 58.6995861,22.8045913 L56.1191884,24.2012829 L57.6334712,27.1013227 Z M58.5285583,22.1583039 C59.2164147,21.7888155 59.8555843,21.650416 60.4460672,21.777388 C61.0353017,21.9056297 61.4922081,22.2751181 61.8092962,22.887123 C62.0427429,23.3340644 62.1139005,23.7860846 62.0340043,24.2342956 C61.9453694,24.6736187 61.7318967,25.0519951 61.4085668,25.3821222 C61.9603499,25.1967432 62.4634463,25.1891249 62.9353333,25.3541884 C63.4009784,25.5344886 63.7742434,25.8785827 64.0463899,26.4029769 C64.4346355,27.1432235 64.4558579,27.8453785 64.1350247,28.4942052 C63.8516429,29.0528819 63.3260757,29.5468029 62.564565,29.9581921 L59.2301469,31.761194 L55.1641791,23.9778123 L58.5285583,22.1583039 Z" id="Fill-56" fill="#26CE77"></path>
                    <polygon id="Fill-58" fill="#26CE77" points="69.0395941 17.5522388 69.241414 18.1657079 64.3953486 19.8496684 65.3710104 22.8394065 69.9519633 21.2441404 70.1561716 21.8686963 65.5752186 23.4651943 66.6464164 26.7357978 71.6787771 24.9828529 71.880597 25.596322 66.1759015 27.5820896 63.5223881 19.4714856"></polygon>
                    <polygon id="Fill-60" fill="#26CE77" points="72.6043362 16.7164179 74.3880597 24.9247472 73.6643205 25.0746269 71.880597 16.8638802"></polygon>
                    <polygon id="Fill-62" fill="#26CE77" points="81.0020486 15.880597 81.0746269 16.5422934 78.1094527 16.9073672 78.959321 24.9896965 78.2698273 25.0746269 77.419959 16.9935652 74.4571261 17.3599067 74.3880597 16.6982103"></polygon>
                    <path d="M84.572355,17.5381405 C83.9361644,18.2196313 83.5806088,19.1278611 83.5107675,20.2653775 C83.4421961,21.4156321 83.6644183,22.3595288 84.2129899,23.1008889 C84.7831487,23.8804634 85.6123552,24.3046437 86.6853713,24.3721559 C87.7558477,24.4383942 88.6180701,24.1199406 89.2783877,23.429533 C89.9145783,22.7607804 90.2663244,21.8538244 90.3387054,20.6895578 C90.4110864,19.5291127 90.173626,18.5699303 89.6250545,17.8400345 C89.0548956,17.06046 88.2383875,16.6502917 87.1793397,16.5840533 C86.1063236,16.5178149 85.2326726,16.8349948 84.572355,17.5381405 M90.22188,17.4184019 C90.8821976,18.303703 91.1742611,19.4017312 91.0904516,20.7379628 C91.0079119,22.0716467 90.5837848,23.1378295 89.8180704,23.9352374 C88.9977527,24.7644908 87.9488636,25.1453613 86.6409269,25.0638372 C85.3355298,24.9823131 84.3285454,24.474061 83.6314024,23.5365335 C82.9685452,22.6512323 82.6764816,21.5417398 82.7602912,20.2182464 C82.841561,18.8960268 83.2669579,17.8285702 84.0326724,17.0337099 C84.85299,16.1904446 85.9133077,15.8108478 87.2225143,15.8910982 C88.515213,15.9726223 89.5107687,16.4796005 90.22188,17.4184019" id="Fill-64" fill="#26CE77"></path>
                    <polygon id="Fill-66" fill="#26CE77" points="93.9027998 16.9210075 96.9762113 25.4418549 97.0105975 25.4517744 98.7666632 18.2142619 99.4626866 18.3977725 97.4327172 26.7462687 96.6726645 26.5441589 93.5933243 17.9588348 93.5589382 17.9501553 91.7862722 25.2459448 91.1044776 25.066154 93.1320755 16.7164179"></polygon>
                    <path d="M108.378488,22.2539179 C108.704318,22.9610131 108.743018,23.7758444 108.499582,24.6711681 L107.815465,24.3591051 C107.99024,23.6693467 107.945298,23.0390289 107.673149,22.47682 C107.38602,21.8811759 106.855455,21.4143197 106.105173,21.071298 C105.177621,20.6477839 104.297507,20.6428305 103.449851,21.0527228 C102.625915,21.4452783 101.974256,22.1573269 101.49113,23.1962987 C101.019239,24.215457 100.906884,25.1466927 101.159059,25.9924827 C101.416227,26.9051432 102.069134,27.6010933 103.130264,28.0852864 C103.592168,28.2970435 104.066555,28.4344998 104.567159,28.5038472 C105.047788,28.5645261 105.483476,28.5769095 105.861738,28.5112772 L106.894155,26.2884472 L104.200133,25.0575319 L104.474778,24.4668411 L107.841681,26.0048661 L106.387309,29.1354033 C105.891699,29.2530461 105.326179,29.2889581 104.706978,29.2158958 C104.049078,29.1292116 103.411151,28.9434598 102.794448,28.6623554 C101.559792,28.0976699 100.773307,27.2481649 100.456216,26.1472758 C100.157851,25.1219258 100.285187,24.039612 100.818249,22.8904274 C101.357553,21.7276211 102.110331,20.9177432 103.087819,20.450887 C104.148949,19.9233518 105.242537,19.9332586 106.389806,20.4570787 C107.3623,20.9004063 108.022698,21.4948121 108.378488,22.2539179" id="Fill-68" fill="#26CE77"></path>
                </g>
                <path d="M59.8716755,99.6057051 C61.2246755,99.5397051 62.2806755,99.1437051 63.0726755,98.4177051 C63.7656755,97.6587051 64.3266755,95.1837051 64.7226755,91.0257051 L61.6536755,90.0357051 C61.4556755,93.5007051 61.1256755,95.4807051 60.5976755,95.9757051 C60.1356755,96.3717051 59.5746755,96.5697051 58.9806755,96.5697051 L42.5136755,96.5697051 C41.2596755,96.5697051 40.6326755,95.9427051 40.6326755,94.6887051 L40.6326755,85.6137051 L61.0926755,85.6137051 L61.0926755,71.7537051 L36.1116755,71.7537051 L36.1116755,74.7567051 L57.8916755,74.7567051 L57.8916755,82.6107051 L40.6326755,82.6107051 L40.6326755,78.0897051 L37.4646755,78.0897051 L37.4646755,95.2497051 C37.4646755,98.1537051 38.8506755,99.6057051 41.6556755,99.6057051 L59.8716755,99.6057051 Z M80.3646755,83.6007051 C81.5526755,82.7097051 82.6746755,81.6867051 83.7306755,80.5317051 L83.7306755,82.3797051 L93.1356755,82.3797051 L93.1356755,80.3997051 C94.1586755,81.5217051 95.3136755,82.5777051 96.6336755,83.5677051 L98.3496755,80.9937051 C94.3236755,77.9247051 91.5186755,74.3277051 89.9016755,70.2357051 L87.0966755,70.2357051 C85.1166755,74.6907051 82.3446755,78.3207051 78.7146755,81.0927051 L80.3646755,83.6007051 Z M73.8306755,100.232705 C76.0086755,100.232705 77.4606755,99.6387051 78.1536755,98.4507051 C78.8136755,97.2627051 79.1766755,92.8077051 79.1766755,85.0857051 L77.2626755,85.0857051 L78.8136755,71.4897051 L67.9896755,71.4897051 L67.9896755,74.3277051 L75.7116755,74.3277051 L74.3256755,85.0857051 L71.0916755,85.0857051 L72.3786755,76.3737051 L69.5076755,76.2087051 L67.9566755,87.8577051 L76.3056755,87.8577051 C76.3056755,92.4777051 76.1406755,95.2497051 75.8106755,96.2067051 C75.5136755,97.1307051 74.6226755,97.6257051 73.1376755,97.6257051 C72.6756755,97.6257051 71.8836755,97.5267051 70.7286755,97.3617051 L71.5536755,100.133705 C72.3456755,100.199705 73.1046755,100.232705 73.8306755,100.232705 Z M92.3766755,79.5417051 L84.5886755,79.5417051 C86.0406755,77.7597051 87.3276755,75.6807051 88.4826755,73.3047051 C89.4726755,75.5487051 90.7926755,77.6277051 92.3766755,79.5417051 Z M87.8556755,93.5667051 L90.5616755,92.9067051 C89.9016755,89.5407051 89.1756755,86.5377051 88.3176755,83.9637051 L85.6446755,84.8217051 C86.5686755,87.6267051 87.2946755,90.5307051 87.8556755,93.5667051 Z M97.8876755,99.6057051 L97.8876755,96.6027051 L93.2676755,96.6027051 C94.5216755,93.1047051 95.5776755,89.1777051 96.4356755,84.7557051 L93.4326755,83.9967051 C92.5086755,88.9467051 91.4526755,93.1707051 90.2646755,96.6027051 L79.6716755,96.6027051 L79.6716755,99.6057051 L97.8876755,99.6057051 Z M83.3016755,94.9527051 L85.9746755,94.2927051 C85.1496755,90.7947051 84.2256755,87.6597051 83.2356755,84.9537051 L80.5626755,85.8777051 C81.6516755,88.7817051 82.5756755,91.7847051 83.3016755,94.9527051 Z M67.5276755,94.9197051 C70.2666755,94.3917051 72.7086755,93.7317051 74.8536755,92.9397051 L74.8536755,90.1347051 C72.6426755,90.8937051 70.0686755,91.4877051 67.1646755,91.9497051 L67.5276755,94.9197051 Z M108.216676,77.5287051 L110.361676,75.3507051 C108.909676,73.7337051 107.127676,72.1167051 105.081676,70.4667051 L102.903676,72.5457051 C105.147676,74.2947051 106.929676,75.9447051 108.216676,77.5287051 Z M131.151676,99.5397051 L131.151676,96.4707051 L123.990676,96.4707051 L123.990676,85.9767051 L130.029676,85.9767051 L130.029676,83.0397051 L123.990676,83.0397051 L123.990676,74.5587051 L130.491676,74.5587051 L130.491676,71.4897051 L111.780676,71.4897051 L111.780676,74.5587051 L120.789676,74.5587051 L120.789676,96.4707051 L116.928676,96.4707051 L116.928676,79.5417051 L113.859676,79.5417051 L113.859676,96.4707051 L110.757676,96.4707051 L110.757676,99.5397051 L131.151676,99.5397051 Z M105.477676,99.3747051 C107.721676,97.8567051 109.833676,96.1407051 111.813676,94.2267051 L110.988676,90.8937051 C109.965676,91.8837051 109.008676,92.8077051 108.117676,93.5997051 L108.117676,80.0367051 L100.560676,80.0367051 L100.560676,83.0397051 L105.114676,83.0397051 L105.114676,94.8537051 C105.114676,95.5137051 104.817676,96.0747051 104.289676,96.5367051 L105.477676,99.3747051 Z" id="已验证" fill="#26CE77" fill-rule="nonzero" transform="translate(83.631676, 85.234205) rotate(-16.000000) translate(-83.631676, -85.234205) "></path>
            </g>
        </g>
    </g>
</svg>